<?xml version="1.0" encoding="utf-8"?>
<!-- Generator: Adobe Illustrator 16.0.0, SVG Export Plug-In . SVG Version: 6.00 Build 0)  -->
<!DOCTYPE svg PUBLIC "-//W3C//DTD SVG 1.1//EN" "http://www.w3.org/Graphics/SVG/1.1/DTD/svg11.dtd">
<svg version="1.1" id="Wireframe" xmlns="http://www.w3.org/2000/svg" xmlns:xlink="http://www.w3.org/1999/xlink" x="0px" y="0px"
	 width="820px" height="1652px" viewBox="0 0 820 1652" enable-background="new 0 0 820 1652" xml:space="preserve">
<g>
	<path fill="none" stroke="#615c76" stroke-width="9" stroke-miterlimit="10" d="M667.029,27.018h-5.732V23.6c0-2.209-1.791-4-4-4
		h-112c-2.209,0-4,1.791-4,4v3.418H134.954c-51.743,0-100.991,49.249-100.991,110V249.93H30.63c-2.209,0-4,1.791-4,4v56.667
		c0,2.209,1.791,4,4,4h3.332v82H30.63c-2.209,0-4,1.791-4,4v45.67c0,2.209,1.791,4,4,4h3.332v78.997H30.63c-2.209,0-4,1.791-4,4
		v45.67c0,2.209,1.791,4,4,4h3.332v922.051c0,60.752,49.248,110,110,110h532.075c60.752,0,110-49.248,110-110V137.018
		C786.037,76.266,736.789,27.018,667.029,27.018z"/>
</g>
<circle fill="none" stroke="#615c76" stroke-width="4" stroke-miterlimit="10" cx="411.501" cy="1500.994" r="68.552"/>
<path fill="none" stroke="#615c76" stroke-width="4" stroke-miterlimit="10" d="M479.053,165.054c0,8.284-6.717,15-15,15H358.047
	c-8.284,0-14.999-6.715-14.999-15l0,0c0-8.284,6.715-14.999,14.999-14.999h106.005C472.336,150.055,479.053,156.771,479.053,165.054
	L479.053,165.054z"/>
<circle fill="none" stroke="#615c76" stroke-width="4" stroke-miterlimit="10" cx="410.964" cy="105.267" r="14"/>
</svg>
