<?xml version="1.0" encoding="utf-8"?>
<!-- Generator: Adobe Illustrator 16.0.0, SVG Export Plug-In . SVG Version: 6.00 Build 0)  -->
<!DOCTYPE svg PUBLIC "-//W3C//DTD SVG 1.1//EN" "http://www.w3.org/Graphics/SVG/1.1/DTD/svg11.dtd">
<svg version="1.1" id="Layer_1" xmlns="http://www.w3.org/2000/svg" xmlns:xlink="http://www.w3.org/1999/xlink" x="0px" y="0px"
	 width="66.964px" height="62.5px" viewBox="0 0 66.964 62.5" enable-background="new 0 0 66.964 62.5" xml:space="preserve">
<g>
	<g>
		<g>
			<path fill="#FFFFFF" d="M33.41,39.467c-0.77,0-1.509-0.279-2.093-0.792l-14.496-9.243c-0.494-0.316-0.639-0.975-0.324-1.469
				c0.315-0.495,0.973-0.64,1.467-0.324l14.57,9.293c0.055,0.034,0.105,0.073,0.154,0.118c0.141,0.134,0.383,0.291,0.721,0.291
				c0.281,0,0.496-0.114,0.625-0.212c0.021-0.015,0.043-0.029,0.062-0.043c0,0,9.951-6.316,15.049-9.557
				c0.494-0.314,1.15-0.168,1.467,0.326c0.314,0.496,0.168,1.152-0.328,1.467c-4.936,3.138-14.427,9.164-15.02,9.539
				C34.72,39.257,34.078,39.467,33.41,39.467z"/>
		</g>
	</g>
	<g>
		<g>
			<path fill="#FFFFFF" d="M51.119,50.941H15.845c-1.992,0-3.613-1.621-3.613-3.613V26.505c0-1.098,0.485-2.114,1.337-2.805
				c0.045-0.04,0.094-0.077,0.146-0.111l0.001,0.002c0.231-0.153,2.031-1.303,17.98-11.429c0.547-0.396,1.189-0.604,1.857-0.604
				c0.771,0,1.509,0.278,2.092,0.789l17.489,11.155c0.119,0.062,0.223,0.142,0.311,0.239c0.809,0.684,1.287,1.697,1.287,2.762V47.33
				C54.732,49.322,53.111,50.941,51.119,50.941z M14.928,25.335c-0.364,0.285-0.572,0.711-0.572,1.17V47.33
				c0,0.818,0.668,1.486,1.489,1.486h35.273c0.82,0,1.488-0.668,1.488-1.486V26.505c0-0.478-0.223-0.914-0.609-1.198
				c-0.02-0.015-0.039-0.027-0.055-0.043l-17.514-11.17c-0.057-0.035-0.105-0.076-0.154-0.119c-0.143-0.134-0.383-0.291-0.721-0.291
				c-0.281,0-0.495,0.115-0.626,0.213c-0.02,0.015-0.043,0.028-0.063,0.043C26.876,17.739,15.525,24.947,14.928,25.335z"/>
		</g>
	</g>
</g>
</svg>
